<?xml version="1.0" encoding="utf-8"?>
<svg width="512px" height="512px" viewBox="0 0 512 512" version="1.1" xmlns:xlink="http://www.w3.org/1999/xlink" xmlns="http://www.w3.org/2000/svg">
  <desc>Created with Lunacy</desc>
  <defs>
    <path d="M0 0L512 0L512 512L0 512L0 0Z" id="path_1" />
    <rect width="512" height="512" id="artboard_1" />
    <clipPath id="clip_1">
      <use xlink:href="#artboard_1" clip-rule="evenodd" />
    </clipPath>
    <clipPath id="mask_1">
      <use xlink:href="#path_1" />
    </clipPath>
  </defs>
  <g id="Artboard-Copy-3" clip-path="url(#clip_1)">
    <g id="HTML5_Badge">
      <path d="M0 0L512 0L512 512L0 512L0 0Z" id="Background" fill="none" stroke="none" />
      <g clip-path="url(#mask_1)">
        <path d="M41 460L0 0L451 0L410 460L225 512" transform="translate(30 0)" id="Shape" fill="#1272BF" stroke="none" />
        <path d="M0 435L149 394L184 0L0 0" transform="translate(256 37)" id="Shape" fill="#FFFFFF" fill-opacity="0.21176471" stroke="none" />
      </g>
    </g>
    <g id="coffee-icon-12" transform="translate(122.26813 68.45154)">
      <g id="Group">
        <path d="M109.76 63.5233C72.71 61.7926 37.5831 55.1903 18.2249 46.4086C5.14845 40.4472 -1.64617 32.627 0.340938 25.8965C3.22545 16.2815 18.7377 7.94844 45.8521 1.41021L51.7493 0L56.2363 4.23062C58.7362 6.53823 61.8771 9.16634 63.2232 10.1278C64.6975 11.0893 65.9154 12.4355 66.1718 13.4611C66.3641 14.4226 67.582 16.7302 68.864 18.5891C74.1202 26.2811 84.5686 31.1527 101.812 33.8449C112.452 35.5756 153.028 35.5756 164.117 33.909C181.424 31.2809 192.193 26.3452 197.449 18.5891C198.731 16.7302 199.949 14.4226 200.141 13.4611C200.398 12.4996 201.551 11.0893 202.897 10.1919C204.244 9.35865 207.384 6.66643 209.884 4.35882L214.564 1.95618e-05L220.461 1.41023C251.742 8.78175 269.177 19.9993 265.972 30.7681C264.818 34.55 261.677 38.2678 256.87 41.4728C233.025 57.3056 171.937 66.4719 109.76 63.5233L109.76 63.5233Z" transform="translate(0 276.47668)" id="Shape" fill="#FFFFFF" stroke="none" />
        <path d="M83.9789 173.473C64.877 172.256 51.8006 168.217 47.9546 162.32C47.3777 161.423 46.7367 159.435 46.6084 157.897C46.2879 155.397 45.9033 154.82 43.2752 152.961C38.5959 149.564 29.8142 140.334 25.0708 133.731C20.0069 126.68 12.1225 111.04 9.30215 102.45C3.14853 83.9255 0.199922 64.5031 0.00761933 41.8116C-0.0564799 29.1198 0.199922 27.8378 4.11003 22.838C6.73814 19.633 14.1738 14.6332 20.5197 12.0051C54.3005 -2.09699 127.952 -4.14819 171.732 7.83854C187.565 12.1974 198.334 18.6074 202.436 26.1712C204.038 29.0557 204.359 30.4659 204.615 35.8503L204.622 35.9837C204.936 41.9426 204.946 42.1293 206.282 41.7475C206.987 41.4911 210.833 41.2988 214.679 41.2988C225.384 41.3629 232.371 43.991 238.012 50.1447C250.96 64.2467 246.729 91.297 228.525 110.271C217.371 121.873 203.333 129.116 186.924 131.744L180.193 132.834L177.95 135.718C172.822 142.128 167.373 147.769 162.886 151.423C158.591 154.884 158.079 155.525 157.822 157.961C157.374 161.358 156.092 163.41 152.694 165.846C143.72 172.32 115.452 175.461 83.9789 173.473ZM179.103 35.2734C179.103 41.1706 159.104 46.9396 130.708 49.119C121.285 49.8241 97.4399 50.401 89.6838 50.0805C57.2491 48.6703 33.0833 44.1192 26.7374 38.1579C23.5965 35.2093 25.4554 31.9402 32.0577 28.9274C40.2625 25.1455 55.0056 22.0687 74.2997 20.2098C85.1967 19.1842 119.362 19.1842 130.067 20.2739C160.322 23.2225 179.103 28.9915 179.103 35.2734ZM48.5956 75.2078C49.9416 100.591 56.0312 124.565 65.3898 141.295C66.6077 143.539 67.5051 145.333 67.3128 145.333C66.159 145.333 50.9673 133.09 47.6981 129.501C36.737 117.514 28.8527 101.168 24.3657 81.2332C22.9555 74.695 20.5838 59.4391 20.9684 58.9904C21.0966 58.9263 23.8529 59.8878 27.1861 61.1698C30.5193 62.3877 36.4165 64.1185 40.3266 65.0159C44.1726 65.9133 47.5058 66.6824 47.7622 66.8107C47.9545 67.003 48.3391 70.7208 48.5956 75.2078ZM201.731 105.399C221.41 95.2071 231.089 77.4513 222.884 66.5543C220.256 63.0929 216.474 61.8109 210.064 62.1314C207.115 62.2596 204.423 62.7083 204.039 63.0929C203.654 63.4775 202.757 67.5158 202.116 72.0669C200.577 82.7075 198.205 92.9636 195.129 102.13C194.955 102.641 194.789 103.12 194.634 103.57C193.539 106.749 192.961 108.429 193.474 108.889C194.05 109.405 196 108.388 200.133 106.231C200.633 105.97 201.165 105.693 201.731 105.399Z" transform="translate(30.973198 125.50244)" id="Shape" fill="#FFFFFF" fill-rule="evenodd" stroke="none" />
        <path d="M1.14148 89.3819C4.64379 86.2444 7.12459 81.9395 8.43796 76.759C9.75133 71.5055 9.6054 66.5439 7.63534 50.4917C4.93565 29.113 10.335 17.4386 27.7007 6.93166C32.2975 4.23196 34.0486 3.28342 39.375 1.09447L41.9288 0L38.6454 2.77266C32.8812 7.66131 29.8896 11.3095 27.3358 16.563C23.5417 24.2243 22.885 30.2074 24.3443 43.633C25.7306 56.7666 25.8036 61.2175 24.4902 66.6169C22.4472 75.2997 15.5885 82.961 5.00862 88.3604C-0.536715 91.1331 -0.901539 91.206 1.14148 89.3819L1.14148 89.3819Z" transform="matrix(0.9848077 -0.17364818 0.17364818 0.9848077 109.50348 7.280884)" id="Shape" fill="#FFFFFF" stroke="none" />
        <path d="M2.2619 64.5395C7.44241 59.1401 8.53688 53.3759 6.63979 41.6286C4.15899 25.8682 5.54532 19.1554 12.9148 12.0048C16.0523 8.86735 19.1168 6.82434 24.6621 4.1976C34.2935 -0.472146 36.8472 -1.20179 32.6882 1.78976C27.9455 5.29208 24.5891 8.94032 22.4002 13.0993C20.5031 16.7476 20.4301 17.1853 20.722 26.3789C21.3057 46.7361 21.2328 49.5817 19.8464 52.1355C16.8549 57.6808 9.77728 63.2991 2.18894 66.1447L0 66.9473L2.26191 64.5395L2.2619 64.5395Z" transform="matrix(0.9848077 -0.17364818 0.17364818 0.9848077 67.97293 38.71814)" id="Shape" fill="#FFFFFF" stroke="none" />
        <path d="M2.43573 63.7984C7.25141 58.326 7.98106 53.5833 5.86508 40.8875C3.01946 23.5948 6.30288 14.7661 18.1961 7.32363C22.72 4.55097 33.2269 -0.410636 33.7376 0.0271519C33.8836 0.173082 32.2054 1.70534 30.0164 3.38353C25.2737 7.10474 22.2092 11.3367 20.458 16.5902C19.5095 19.6547 19.3635 21.7707 19.7284 27.0971C21.1877 47.3813 21.1877 47.4543 19.4365 51.4674C17.3935 56.356 12.3589 61.0257 5.64618 64.3821C2.80055 65.8414 0.319755 67.0089 0.0278784 67.0089C-0.191007 67.0089 0.903465 65.5496 2.43571 63.7984L2.43573 63.7984Z" transform="matrix(0.9848077 -0.17364818 0.17364818 0.9848077 160.54498 22.258545)" id="Shape" fill="#FFFFFF" stroke="none" />
      </g>
    </g>
  </g>
</svg>