<?xml version="1.0" encoding="utf-8"?>
<svg width="1720px" height="512px" viewBox="0 0 1720 512" version="1.1" xmlns:xlink="http://www.w3.org/1999/xlink" xmlns="http://www.w3.org/2000/svg">
  <desc>Created with Lunacy</desc>
  <defs>
    <path d="M0 0L512 0L512 512L0 512L0 0Z" id="path_1" />
    <rect width="1720" height="512" id="artboard_1" />
    <clipPath id="clip_1">
      <use xlink:href="#artboard_1" clip-rule="evenodd" />
    </clipPath>
    <clipPath id="mask_1">
      <use xlink:href="#path_1" />
    </clipPath>
  </defs>
  <g id="Artboard-Copy-2" clip-path="url(#clip_1)">
    <g id="HTML5_Badge">
      <path d="M0 0L512 0L512 512L0 512L0 0Z" id="Background" fill="none" stroke="none" />
      <g clip-path="url(#mask_1)">
        <path d="M41 460L0 0L451 0L410 460L225 512" transform="translate(30 0)" id="Shape" fill="#1272BF" stroke="none" />
        <path d="M0 435L149 394L184 0L0 0" transform="translate(256 37)" id="Shape" fill="#FFFFFF" fill-opacity="0.21176471" stroke="none" />
      </g>
    </g>
    <g id="coffee-icon-12" transform="translate(122.26813 68.45154)">
      <g id="Group">
        <path d="M109.76 63.5233C72.71 61.7926 37.5831 55.1903 18.2249 46.4086C5.14845 40.4472 -1.64617 32.627 0.340938 25.8965C3.22545 16.2815 18.7377 7.94844 45.8521 1.41021L51.7493 0L56.2363 4.23062C58.7362 6.53823 61.8771 9.16634 63.2232 10.1278C64.6975 11.0893 65.9154 12.4355 66.1718 13.4611C66.3641 14.4226 67.582 16.7302 68.864 18.5891C74.1202 26.2811 84.5686 31.1527 101.812 33.8449C112.452 35.5756 153.028 35.5756 164.117 33.909C181.424 31.2809 192.193 26.3452 197.449 18.5891C198.731 16.7302 199.949 14.4226 200.141 13.4611C200.398 12.4996 201.551 11.0893 202.897 10.1919C204.244 9.35865 207.384 6.66643 209.884 4.35882L214.564 1.95618e-05L220.461 1.41023C251.742 8.78175 269.177 19.9993 265.972 30.7681C264.818 34.55 261.677 38.2678 256.87 41.4728C233.025 57.3056 171.937 66.4719 109.76 63.5233L109.76 63.5233Z" transform="translate(0 276.47668)" id="Shape" fill="#FFFFFF" stroke="none" />
        <path d="M83.9789 173.473C64.877 172.256 51.8006 168.217 47.9546 162.32C47.3777 161.423 46.7367 159.435 46.6084 157.897C46.2879 155.397 45.9033 154.82 43.2752 152.961C38.5959 149.564 29.8142 140.334 25.0708 133.731C20.0069 126.68 12.1225 111.04 9.30215 102.45C3.14853 83.9255 0.199922 64.5031 0.00761933 41.8116C-0.0564799 29.1198 0.199922 27.8378 4.11003 22.838C6.73814 19.633 14.1738 14.6332 20.5197 12.0051C54.3005 -2.09699 127.952 -4.14819 171.732 7.83854C187.565 12.1974 198.334 18.6074 202.436 26.1712C204.038 29.0557 204.359 30.4659 204.615 35.8503L204.622 35.9837C204.936 41.9426 204.946 42.1293 206.282 41.7475C206.987 41.4911 210.833 41.2988 214.679 41.2988C225.384 41.3629 232.371 43.991 238.012 50.1447C250.96 64.2467 246.729 91.297 228.525 110.271C217.371 121.873 203.333 129.116 186.924 131.744L180.193 132.834L177.95 135.718C172.822 142.128 167.373 147.769 162.886 151.423C158.591 154.884 158.079 155.525 157.822 157.961C157.374 161.358 156.092 163.41 152.694 165.846C143.72 172.32 115.452 175.461 83.9789 173.473ZM179.103 35.2734C179.103 41.1706 159.104 46.9396 130.708 49.119C121.285 49.8241 97.4399 50.401 89.6838 50.0805C57.2491 48.6703 33.0833 44.1192 26.7374 38.1579C23.5965 35.2093 25.4554 31.9402 32.0577 28.9274C40.2625 25.1455 55.0056 22.0687 74.2997 20.2098C85.1967 19.1842 119.362 19.1842 130.067 20.2739C160.322 23.2225 179.103 28.9915 179.103 35.2734ZM48.5956 75.2078C49.9416 100.591 56.0312 124.565 65.3898 141.295C66.6077 143.539 67.5051 145.333 67.3128 145.333C66.159 145.333 50.9673 133.09 47.6981 129.501C36.737 117.514 28.8527 101.168 24.3657 81.2332C22.9555 74.695 20.5838 59.4391 20.9684 58.9904C21.0966 58.9263 23.8529 59.8878 27.1861 61.1698C30.5193 62.3877 36.4165 64.1185 40.3266 65.0159C44.1726 65.9133 47.5058 66.6824 47.7622 66.8107C47.9545 67.003 48.3391 70.7208 48.5956 75.2078ZM201.731 105.399C221.41 95.2071 231.089 77.4513 222.884 66.5543C220.256 63.0929 216.474 61.8109 210.064 62.1314C207.115 62.2596 204.423 62.7083 204.039 63.0929C203.654 63.4775 202.757 67.5158 202.116 72.0669C200.577 82.7075 198.205 92.9636 195.129 102.13C194.955 102.641 194.789 103.12 194.634 103.57C193.539 106.749 192.961 108.429 193.474 108.889C194.05 109.405 196 108.388 200.133 106.231C200.633 105.97 201.165 105.693 201.731 105.399Z" transform="translate(30.973198 125.50244)" id="Shape" fill="#FFFFFF" fill-rule="evenodd" stroke="none" />
        <path d="M1.14148 89.3819C4.64379 86.2444 7.12459 81.9395 8.43796 76.759C9.75133 71.5055 9.6054 66.5439 7.63534 50.4917C4.93565 29.113 10.335 17.4386 27.7007 6.93166C32.2975 4.23196 34.0486 3.28342 39.375 1.09447L41.9288 0L38.6454 2.77266C32.8812 7.66131 29.8896 11.3095 27.3358 16.563C23.5417 24.2243 22.885 30.2074 24.3443 43.633C25.7306 56.7666 25.8036 61.2175 24.4902 66.6169C22.4472 75.2997 15.5885 82.961 5.00862 88.3604C-0.536715 91.1331 -0.901539 91.206 1.14148 89.3819L1.14148 89.3819Z" transform="matrix(0.9848077 -0.17364818 0.17364818 0.9848077 109.50348 7.280884)" id="Shape" fill="#FFFFFF" stroke="none" />
        <path d="M2.2619 64.5395C7.44241 59.1401 8.53688 53.3759 6.63979 41.6286C4.15899 25.8682 5.54532 19.1554 12.9148 12.0048C16.0523 8.86735 19.1168 6.82434 24.6621 4.1976C34.2935 -0.472146 36.8472 -1.20179 32.6882 1.78976C27.9455 5.29208 24.5891 8.94032 22.4002 13.0993C20.5031 16.7476 20.4301 17.1853 20.722 26.3789C21.3057 46.7361 21.2328 49.5817 19.8464 52.1355C16.8549 57.6808 9.77728 63.2991 2.18894 66.1447L0 66.9473L2.26191 64.5395L2.2619 64.5395Z" transform="matrix(0.9848077 -0.17364818 0.17364818 0.9848077 67.97293 38.71814)" id="Shape" fill="#FFFFFF" stroke="none" />
        <path d="M2.43573 63.7984C7.25141 58.326 7.98106 53.5833 5.86508 40.8875C3.01946 23.5948 6.30288 14.7661 18.1961 7.32363C22.72 4.55097 33.2269 -0.410636 33.7376 0.0271519C33.8836 0.173082 32.2054 1.70534 30.0164 3.38353C25.2737 7.10474 22.2092 11.3367 20.458 16.5902C19.5095 19.6547 19.3635 21.7707 19.7284 27.0971C21.1877 47.3813 21.1877 47.4543 19.4365 51.4674C17.3935 56.356 12.3589 61.0257 5.64618 64.3821C2.80055 65.8414 0.319755 67.0089 0.0278784 67.0089C-0.191007 67.0089 0.903465 65.5496 2.43571 63.7984L2.43573 63.7984Z" transform="matrix(0.9848077 -0.17364818 0.17364818 0.9848077 160.54498 22.258545)" id="Shape" fill="#FFFFFF" stroke="none" />
      </g>
    </g>
    <path d="M364 10.8L376.4 0L438 0L422.8 125.2C428.667 115.067 436.267 106.867 445.6 100.6C454.933 94.3334 465.867 91.2 478.4 91.2Q502.8 91.2 519 106.4C529.8 116.533 533.867 132.267 531.2 153.6L521.2 236L544.4 236L540.8 265.2L528.8 275.2L467.2 275.2L479.6 173.6C481.733 158.133 480.667 147.067 476.4 140.4C472.133 133.733 465.067 130.4 455.2 130.4C443.733 130.4 435.067 134 429.2 141.2Q420.4 152 417.2 169.6L404.4 275.2L354.8 275.2L383.6 39.2L360.4 39.2L364 10.8ZM1052 0L1039.6 10.8L1036 39.2L1060.8 39.2L1032 275.2L1094 275.2L1106 265.2L1109.6 236L1086.4 236L1115.2 0L1052 0ZM79.2 62.8L82.0851 35.1857Q82.1542 34.5246 82.2534 33.8673Q82.3527 33.2101 82.482 32.5581Q82.6113 31.9061 82.7704 31.2607Q82.9294 30.6154 83.1178 29.9779Q83.3063 29.3405 83.5237 28.7124Q83.7411 28.0843 83.9872 27.4668Q84.2331 26.8493 84.5072 26.2437Q84.7812 25.6381 85.0827 25.0458Q85.3842 24.4534 85.7125 23.8754Q86.0408 23.2975 86.3953 22.7352Q86.7497 22.1729 87.1295 21.6274Q87.5094 21.0819 87.9138 20.5545Q88.3183 20.027 88.7464 19.5186Q89.1746 19.0101 89.6256 18.5219Q90.0767 18.0336 90.5496 17.5666Q91.0225 17.0995 91.5163 16.6546Q92.0101 16.2097 92.5238 15.7878Q93.0375 15.366 93.57 14.9682Q94.1025 14.5703 94.6526 14.1973Q95.2028 13.8243 95.7694 13.4768Q96.3361 13.1294 96.9181 12.8083Q97.5 12.4872 98.0961 12.1931Q98.6922 11.899 99.3012 11.6325Q99.9101 11.366 100.531 11.1277Q101.151 10.8894 101.782 10.6798Q102.413 10.4702 103.052 10.2897Q103.692 10.1092 104.339 9.95819Q104.987 9.80719 105.64 9.68601Q106.294 9.56483 106.952 9.47372Q107.611 9.38261 108.273 9.32177Q108.934 9.26092 109.598 9.23047Q110.262 9.20001 110.927 9.20001L132.8 9.20001L129.915 36.8144Q129.846 37.4754 129.747 38.1327Q129.647 38.7899 129.518 39.4419Q129.389 40.0939 129.23 40.7393Q129.071 41.3847 128.882 42.0221Q128.694 42.6595 128.476 43.2876Q128.259 43.9157 128.013 44.5332Q127.767 45.1507 127.493 45.7563Q127.219 46.3619 126.917 46.9543Q126.616 47.5466 126.288 48.1246Q125.959 48.7025 125.605 49.2648Q125.25 49.8271 124.87 50.3726Q124.491 50.9181 124.086 51.4456Q123.682 51.9731 123.254 52.4815Q122.825 52.9899 122.374 53.4781Q121.923 53.9664 121.45 54.4334Q120.978 54.9005 120.484 55.3454Q119.99 55.7904 119.476 56.2122Q118.963 56.634 118.43 57.0319Q117.898 57.4297 117.347 57.8027Q116.797 58.1758 116.231 58.5232Q115.664 58.8706 115.082 59.1917Q114.5 59.5128 113.904 59.8069Q113.308 60.101 112.699 60.3675Q112.09 60.634 111.469 60.8723Q110.849 61.1106 110.218 61.3202Q109.587 61.5298 108.948 61.7103Q108.308 61.8908 107.661 62.0418Q107.013 62.1928 106.36 62.314Q105.706 62.4352 105.048 62.5263Q104.389 62.6174 103.727 62.6782Q103.066 62.7391 102.402 62.7695Q101.738 62.8 101.073 62.8L79.2 62.8ZM578.8 94.8L565.2 107.2L561.6 134L585.6 134L574.8 221.2C572.667 239.867 576.867 254.2 587.4 264.2C597.933 274.2 612.8 279.2 632 279.2C649.867 279.2 663.733 274.4 673.6 264.8C683.467 255.2 690.933 240 696 219.2L661.2 207.6Q656 228.4 649.8 234.2C645.667 238.067 641.467 240 637.2 240Q632.752 240 629.894 237.868Q623.241 232.907 625.2 216.4L635.2 134L676.8 134L690.4 121.2L694 94.8L640 94.8L646.8 40.0001L610.8 40.0001L595.2 56L590.4 94.8L578.8 94.8ZM158.4 139.6L198.4 144L207.6 114.4C211.867 112.267 217.2 110.733 223.6 109.8C230 108.867 235.467 108.4 240 108.4C248.8 108.4 256.333 110 262.6 113.2C268.867 116.4 272 122 272 130C272 140.933 265.933 151.733 253.8 162.4Q235.6 178.4 206.2 195.4C186.6 206.733 165.467 219.2 142.8 232.8L143.2 275.2L321.2 275.2L330 204.4L288.8 200.4L284.4 229.6L206.8 229.6C225.2 220.267 243.867 210.667 262.8 200.8C281.733 190.933 297.6 179.4 310.4 166.2Q329.6 146.4 329.6 118.4Q329.6 96 313.2 79.4C302.267 68.3333 282.533 62.8 254 62.8Q240 62.8 218.4 65.8Q196.8 68.8 173.6 78.4L158.4 139.6ZM724 94.8L779.6 94.8L781.2 129.6C787.333 118.133 795.2 108.867 804.8 101.8C814.4 94.7334 826 91.2 839.6 91.2C852.667 91.2 863.6 94.4667 872.4 101C881.2 107.533 886.533 117.6 888.4 131.2Q897.6 113.6 912.2 102.4C921.933 94.9333 933.733 91.2 947.6 91.2C963.867 91.2 976.733 96.2667 986.2 106.4C995.667 116.533 999.067 132.267 996.4 153.6L986.4 236L1009.6 236L1006 265.2L994 275.2L932.4 275.2L944.8 173.6C946.667 158.133 945.733 147.067 942 140.4C938.267 133.733 931.467 130.4 921.6 130.4Q903.6 130.4 896 142.4C890.933 150.4 887.6 160.667 886 173.2L873.6 275.2L824.4 275.2L836.8 173.6C838.667 158.133 837.733 147.067 834 140.4C830.267 133.733 823.467 130.4 813.6 130.4Q795.6 130.4 788 142.4C782.933 150.4 779.6 160.667 778 173.2L765.6 275.2L716 275.2L733.2 134L708 134L711.6 105.6L724 94.8ZM57.2 94.8L44.8 105.6L41.2 134L70.4 134L54 268.8Q48.8 312 35.4 319.2C26.4667 324 15.3333 323.867 2 318.8L0 352Q17.2 364 40 364C58.9333 364 73.3333 354.933 83.2 336.8C93.0667 318.667 99.7333 296 103.2 268.8L124.8 94.8L57.2 94.8Z" transform="translate(592 103.83917)" id="j2html" fill="#222222" fill-rule="evenodd" stroke="none" />
  </g>
</svg>